<mxfile host="65bd71144e">
    <diagram id="_--73czT6XnS3qFvrzFN" name="Page-1">
        <mxGraphModel dx="4185" dy="2068" grid="1" gridSize="10" guides="1" tooltips="0" connect="1" arrows="1" fold="1" page="1" pageScale="1" pageWidth="850" pageHeight="1100" math="0" shadow="0">
            <root>
                <mxCell id="0"/>
                <mxCell id="1" parent="0"/>
                <mxCell id="6" value="IDrawable&#xa;" style="swimlane;fontStyle=1;align=center;verticalAlign=top;childLayout=stackLayout;horizontal=1;startSize=26;horizontalStack=0;resizeParent=1;resizeParentMax=0;resizeLast=0;collapsible=1;marginBottom=0;" parent="1" vertex="1">
                    <mxGeometry x="1680" y="1100" width="250" height="86" as="geometry"/>
                </mxCell>
                <mxCell id="8" value="" style="line;strokeWidth=1;fillColor=none;align=left;verticalAlign=middle;spacingTop=-1;spacingLeft=3;spacingRight=3;rotatable=0;labelPosition=right;points=[];portConstraint=eastwest;strokeColor=inherit;" parent="6" vertex="1">
                    <mxGeometry y="26" width="250" height="8" as="geometry"/>
                </mxCell>
                <mxCell id="12" value="+ draw(window, start: pair&lt;float, float&gt;): void" style="text;strokeColor=none;fillColor=none;align=left;verticalAlign=top;spacingLeft=4;spacingRight=4;overflow=hidden;rotatable=0;points=[[0,0.5],[1,0.5]];portConstraint=eastwest;" parent="6" vertex="1">
                    <mxGeometry y="34" width="250" height="26" as="geometry"/>
                </mxCell>
                <mxCell id="266" value="+ size(): pair&lt;float, float&gt;" style="text;strokeColor=none;fillColor=none;align=left;verticalAlign=top;spacingLeft=4;spacingRight=4;overflow=hidden;rotatable=0;points=[[0,0.5],[1,0.5]];portConstraint=eastwest;" vertex="1" parent="6">
                    <mxGeometry y="60" width="250" height="26" as="geometry"/>
                </mxCell>
                <mxCell id="10" value="IDrawableComposite&#xa;&#xa;" style="swimlane;fontStyle=1;align=center;verticalAlign=top;childLayout=stackLayout;horizontal=1;startSize=20;horizontalStack=0;resizeParent=1;resizeParentMax=0;resizeLast=0;collapsible=1;marginBottom=0;" parent="1" vertex="1">
                    <mxGeometry x="1365" y="1260" width="265" height="54" as="geometry"/>
                </mxCell>
                <mxCell id="11" value="" style="line;strokeWidth=1;fillColor=none;align=left;verticalAlign=middle;spacingTop=-1;spacingLeft=3;spacingRight=3;rotatable=0;labelPosition=right;points=[];portConstraint=eastwest;strokeColor=inherit;" parent="10" vertex="1">
                    <mxGeometry y="20" width="265" height="8" as="geometry"/>
                </mxCell>
                <mxCell id="13" value="+ pushComponent(comp: IDrawable&amp;): void" style="text;strokeColor=none;fillColor=none;align=left;verticalAlign=top;spacingLeft=4;spacingRight=4;overflow=hidden;rotatable=0;points=[[0,0.5],[1,0.5]];portConstraint=eastwest;" parent="10" vertex="1">
                    <mxGeometry y="28" width="265" height="26" as="geometry"/>
                </mxCell>
                <mxCell id="15" value="" style="endArrow=block;endSize=16;endFill=0;html=1;entryX=0;entryY=0;entryDx=0;entryDy=0;exitX=0.5;exitY=0;exitDx=0;exitDy=0;" parent="1" source="10" target="6" edge="1">
                    <mxGeometry x="0.0026" y="-21" width="160" relative="1" as="geometry">
                        <mxPoint x="1653" y="1400" as="sourcePoint"/>
                        <mxPoint x="1813" y="1400" as="targetPoint"/>
                        <mxPoint as="offset"/>
                    </mxGeometry>
                </mxCell>
                <mxCell id="16" value="DrawableFrame" style="swimlane;fontStyle=1;align=center;verticalAlign=top;childLayout=stackLayout;horizontal=1;startSize=20;horizontalStack=0;resizeParent=1;resizeParentMax=0;resizeLast=0;collapsible=1;marginBottom=0;" parent="1" vertex="1">
                    <mxGeometry x="1650" y="1304" width="280" height="80" as="geometry"/>
                </mxCell>
                <mxCell id="17" value="" style="line;strokeWidth=1;fillColor=none;align=left;verticalAlign=middle;spacingTop=-1;spacingLeft=3;spacingRight=3;rotatable=0;labelPosition=right;points=[];portConstraint=eastwest;strokeColor=inherit;" parent="16" vertex="1">
                    <mxGeometry y="20" width="280" height="8" as="geometry"/>
                </mxCell>
                <mxCell id="264" value="+ DrawableFrame(window, start: pair&lt;float, float&gt;)" style="text;strokeColor=none;fillColor=none;align=left;verticalAlign=top;spacingLeft=4;spacingRight=4;overflow=hidden;rotatable=0;points=[[0,0.5],[1,0.5]];portConstraint=eastwest;" vertex="1" parent="16">
                    <mxGeometry y="28" width="280" height="26" as="geometry"/>
                </mxCell>
                <mxCell id="265" value="+ thickness(): floatÂ " style="text;strokeColor=none;fillColor=none;align=left;verticalAlign=top;spacingLeft=4;spacingRight=4;overflow=hidden;rotatable=0;points=[[0,0.5],[1,0.5]];portConstraint=eastwest;" vertex="1" parent="16">
                    <mxGeometry y="54" width="280" height="26" as="geometry"/>
                </mxCell>
                <mxCell id="27" value="" style="endArrow=block;endSize=16;endFill=0;html=1;entryX=0.299;entryY=1.018;entryDx=0;entryDy=0;entryPerimeter=0;exitX=0.5;exitY=0;exitDx=0;exitDy=0;" parent="1" source="16" target="266" edge="1">
                    <mxGeometry x="0.0026" y="-21" width="160" relative="1" as="geometry">
                        <mxPoint x="1493" y="1310" as="sourcePoint"/>
                        <mxPoint x="1691.08" y="1200.988" as="targetPoint"/>
                        <mxPoint as="offset"/>
                    </mxGeometry>
                </mxCell>
                <mxCell id="28" value="" style="endArrow=block;endSize=16;endFill=0;html=1;entryX=0.429;entryY=1.038;entryDx=0;entryDy=0;entryPerimeter=0;exitX=0.5;exitY=0;exitDx=0;exitDy=0;" parent="1" source="254" target="13" edge="1">
                    <mxGeometry x="0.0026" y="-21" width="160" relative="1" as="geometry">
                        <mxPoint x="1675.08" y="1529.3000000000002" as="sourcePoint"/>
                        <mxPoint x="1707.08" y="1200.988" as="targetPoint"/>
                        <mxPoint as="offset"/>
                    </mxGeometry>
                </mxCell>
                <mxCell id="31" value="DrawableGridCanvas" style="swimlane;fontStyle=1;align=center;verticalAlign=top;childLayout=stackLayout;horizontal=1;startSize=20;horizontalStack=0;resizeParent=1;resizeParentMax=0;resizeLast=0;collapsible=1;marginBottom=0;" parent="1" vertex="1">
                    <mxGeometry x="1970" y="1317" width="300" height="106" as="geometry"/>
                </mxCell>
                <mxCell id="32" value="" style="line;strokeWidth=1;fillColor=none;align=left;verticalAlign=middle;spacingTop=-1;spacingLeft=3;spacingRight=3;rotatable=0;labelPosition=right;points=[];portConstraint=eastwest;strokeColor=inherit;" parent="31" vertex="1">
                    <mxGeometry y="20" width="300" height="8" as="geometry"/>
                </mxCell>
                <mxCell id="271" value="+ DrawableGridCanvas(width: size_t, height: size_t)" style="text;strokeColor=none;fillColor=none;align=left;verticalAlign=top;spacingLeft=4;spacingRight=4;overflow=hidden;rotatable=0;points=[[0,0.5],[1,0.5]];portConstraint=eastwest;" vertex="1" parent="31">
                    <mxGeometry y="28" width="300" height="26" as="geometry"/>
                </mxCell>
                <mxCell id="272" value="+ paintCell(cell: pair&lt;size_t, size_t&gt;): void" style="text;strokeColor=none;fillColor=none;align=left;verticalAlign=top;spacingLeft=4;spacingRight=4;overflow=hidden;rotatable=0;points=[[0,0.5],[1,0.5]];portConstraint=eastwest;" vertex="1" parent="31">
                    <mxGeometry y="54" width="300" height="26" as="geometry"/>
                </mxCell>
                <mxCell id="273" value="+ clear(): void" style="text;strokeColor=none;fillColor=none;align=left;verticalAlign=top;spacingLeft=4;spacingRight=4;overflow=hidden;rotatable=0;points=[[0,0.5],[1,0.5]];portConstraint=eastwest;" vertex="1" parent="31">
                    <mxGeometry y="80" width="300" height="26" as="geometry"/>
                </mxCell>
                <mxCell id="34" value="" style="endArrow=block;endSize=16;endFill=0;html=1;entryX=0.69;entryY=1.152;entryDx=0;entryDy=0;exitX=0.5;exitY=0;exitDx=0;exitDy=0;entryPerimeter=0;" parent="1" source="31" target="266" edge="1">
                    <mxGeometry x="0.0026" y="-21" width="160" relative="1" as="geometry">
                        <mxPoint x="1823" y="1310" as="sourcePoint"/>
                        <mxPoint x="1997.08" y="1230.988" as="targetPoint"/>
                        <mxPoint as="offset"/>
                    </mxGeometry>
                </mxCell>
                <mxCell id="42" value="Tetromino" style="swimlane;fontStyle=1;align=center;verticalAlign=top;childLayout=stackLayout;horizontal=1;startSize=26;horizontalStack=0;resizeParent=1;resizeParentMax=0;resizeLast=0;collapsible=1;marginBottom=0;" parent="1" vertex="1">
                    <mxGeometry x="560" y="1430" width="160" height="60" as="geometry"/>
                </mxCell>
                <mxCell id="43" value="" style="line;strokeWidth=1;fillColor=none;align=left;verticalAlign=middle;spacingTop=-1;spacingLeft=3;spacingRight=3;rotatable=0;labelPosition=right;points=[];portConstraint=eastwest;strokeColor=inherit;" parent="42" vertex="1">
                    <mxGeometry y="26" width="160" height="8" as="geometry"/>
                </mxCell>
                <mxCell id="252" value="+ ...movementMethods()..." style="text;strokeColor=none;fillColor=none;align=left;verticalAlign=top;spacingLeft=4;spacingRight=4;overflow=hidden;rotatable=0;points=[[0,0.5],[1,0.5]];portConstraint=eastwest;" vertex="1" parent="42">
                    <mxGeometry y="34" width="160" height="26" as="geometry"/>
                </mxCell>
                <mxCell id="48" value="ISubject" style="swimlane;fontStyle=1;align=center;verticalAlign=top;childLayout=stackLayout;horizontal=1;startSize=26;horizontalStack=0;resizeParent=1;resizeParentMax=0;resizeLast=0;collapsible=1;marginBottom=0;" parent="1" vertex="1">
                    <mxGeometry x="970" y="494" width="285" height="112" as="geometry"/>
                </mxCell>
                <mxCell id="50" value="" style="line;strokeWidth=1;fillColor=none;align=left;verticalAlign=middle;spacingTop=-1;spacingLeft=3;spacingRight=3;rotatable=0;labelPosition=right;points=[];portConstraint=eastwest;strokeColor=inherit;" parent="48" vertex="1">
                    <mxGeometry y="26" width="285" height="8" as="geometry"/>
                </mxCell>
                <mxCell id="51" value="+ attach(Observer, EventType): void" style="text;strokeColor=none;fillColor=none;align=left;verticalAlign=top;spacingLeft=4;spacingRight=4;overflow=hidden;rotatable=0;points=[[0,0.5],[1,0.5]];portConstraint=eastwest;" parent="48" vertex="1">
                    <mxGeometry y="34" width="285" height="26" as="geometry"/>
                </mxCell>
                <mxCell id="53" value="+ detach(Observer): void" style="text;strokeColor=none;fillColor=none;align=left;verticalAlign=top;spacingLeft=4;spacingRight=4;overflow=hidden;rotatable=0;points=[[0,0.5],[1,0.5]];portConstraint=eastwest;" parent="48" vertex="1">
                    <mxGeometry y="60" width="285" height="26" as="geometry"/>
                </mxCell>
                <mxCell id="52" value="~ notify(EventType): void" style="text;strokeColor=none;fillColor=none;align=left;verticalAlign=top;spacingLeft=4;spacingRight=4;overflow=hidden;rotatable=0;points=[[0,0.5],[1,0.5]];portConstraint=eastwest;" parent="48" vertex="1">
                    <mxGeometry y="86" width="285" height="26" as="geometry"/>
                </mxCell>
                <mxCell id="54" value="Observer" style="swimlane;fontStyle=1;align=center;verticalAlign=top;childLayout=stackLayout;horizontal=1;startSize=26;horizontalStack=0;resizeParent=1;resizeParentMax=0;resizeLast=0;collapsible=1;marginBottom=0;" parent="1" vertex="1">
                    <mxGeometry x="1330" y="650" width="285" height="60" as="geometry"/>
                </mxCell>
                <mxCell id="56" value="" style="line;strokeWidth=1;fillColor=none;align=left;verticalAlign=middle;spacingTop=-1;spacingLeft=3;spacingRight=3;rotatable=0;labelPosition=right;points=[];portConstraint=eastwest;strokeColor=inherit;" parent="54" vertex="1">
                    <mxGeometry y="26" width="285" height="8" as="geometry"/>
                </mxCell>
                <mxCell id="59" value="+ update(Subject, EventType): void" style="text;strokeColor=none;fillColor=none;align=left;verticalAlign=top;spacingLeft=4;spacingRight=4;overflow=hidden;rotatable=0;points=[[0,0.5],[1,0.5]];portConstraint=eastwest;" parent="54" vertex="1">
                    <mxGeometry y="34" width="285" height="26" as="geometry"/>
                </mxCell>
                <mxCell id="61" value="" style="endArrow=none;html=1;entryX=0;entryY=0.5;entryDx=0;entryDy=0;exitX=1;exitY=0.5;exitDx=0;exitDy=0;" parent="1" source="51" target="59" edge="1">
                    <mxGeometry width="50" height="50" relative="1" as="geometry">
                        <mxPoint x="1200" y="750" as="sourcePoint"/>
                        <mxPoint x="1250" y="700" as="targetPoint"/>
                    </mxGeometry>
                </mxCell>
                <mxCell id="62" value="TetrisGameModel" style="swimlane;fontStyle=1;align=center;verticalAlign=top;childLayout=stackLayout;horizontal=1;startSize=26;horizontalStack=0;resizeParent=1;resizeParentMax=0;resizeLast=0;collapsible=1;marginBottom=0;" parent="1" vertex="1">
                    <mxGeometry x="936.88" y="790" width="331.25" height="242" as="geometry"/>
                </mxCell>
                <mxCell id="63" value="- impl_: TetrisGameModelImpl" style="text;strokeColor=none;fillColor=none;align=left;verticalAlign=top;spacingLeft=4;spacingRight=4;overflow=hidden;rotatable=0;points=[[0,0.5],[1,0.5]];portConstraint=eastwest;" parent="62" vertex="1">
                    <mxGeometry y="26" width="331.25" height="26" as="geometry"/>
                </mxCell>
                <mxCell id="64" value="" style="line;strokeWidth=1;fillColor=none;align=left;verticalAlign=middle;spacingTop=-1;spacingLeft=3;spacingRight=3;rotatable=0;labelPosition=right;points=[];portConstraint=eastwest;strokeColor=inherit;" parent="62" vertex="1">
                    <mxGeometry y="52" width="331.25" height="8" as="geometry"/>
                </mxCell>
                <mxCell id="94" value="+ TetrisGameModel(size_t, size_t)" style="text;strokeColor=none;fillColor=none;align=left;verticalAlign=top;spacingLeft=4;spacingRight=4;overflow=hidden;rotatable=0;points=[[0,0.5],[1,0.5]];portConstraint=eastwest;" parent="62" vertex="1">
                    <mxGeometry y="60" width="331.25" height="26" as="geometry"/>
                </mxCell>
                <mxCell id="65" value="+ updateModel(): void" style="text;strokeColor=none;fillColor=none;align=left;verticalAlign=top;spacingLeft=4;spacingRight=4;overflow=hidden;rotatable=0;points=[[0,0.5],[1,0.5]];portConstraint=eastwest;" parent="62" vertex="1">
                    <mxGeometry y="86" width="331.25" height="26" as="geometry"/>
                </mxCell>
                <mxCell id="83" value="+ field(): vector&lt;vector&lt;BlockType&gt;&gt;" style="text;strokeColor=none;fillColor=none;align=left;verticalAlign=top;spacingLeft=4;spacingRight=4;overflow=hidden;rotatable=0;points=[[0,0.5],[1,0.5]];portConstraint=eastwest;" parent="62" vertex="1">
                    <mxGeometry y="112" width="331.25" height="26" as="geometry"/>
                </mxCell>
                <mxCell id="88" value="+ score(): int" style="text;strokeColor=none;fillColor=none;align=left;verticalAlign=top;spacingLeft=4;spacingRight=4;overflow=hidden;rotatable=0;points=[[0,0.5],[1,0.5]];portConstraint=eastwest;" parent="62" vertex="1">
                    <mxGeometry y="138" width="331.25" height="26" as="geometry"/>
                </mxCell>
                <mxCell id="89" value="+ rotateRightCurTetromino(): bool" style="text;strokeColor=none;fillColor=none;align=left;verticalAlign=top;spacingLeft=4;spacingRight=4;overflow=hidden;rotatable=0;points=[[0,0.5],[1,0.5]];portConstraint=eastwest;" parent="62" vertex="1">
                    <mxGeometry y="164" width="331.25" height="26" as="geometry"/>
                </mxCell>
                <mxCell id="90" value="+ moveLeftCurTetromino(): bool" style="text;strokeColor=none;fillColor=none;align=left;verticalAlign=top;spacingLeft=4;spacingRight=4;overflow=hidden;rotatable=0;points=[[0,0.5],[1,0.5]];portConstraint=eastwest;" parent="62" vertex="1">
                    <mxGeometry y="190" width="331.25" height="26" as="geometry"/>
                </mxCell>
                <mxCell id="92" value="+ moveRightCurTetromino(): bool" style="text;strokeColor=none;fillColor=none;align=left;verticalAlign=top;spacingLeft=4;spacingRight=4;overflow=hidden;rotatable=0;points=[[0,0.5],[1,0.5]];portConstraint=eastwest;" parent="62" vertex="1">
                    <mxGeometry y="216" width="331.25" height="26" as="geometry"/>
                </mxCell>
                <mxCell id="66" value="" style="endArrow=block;endSize=16;endFill=0;html=1;exitX=0.5;exitY=0;exitDx=0;exitDy=0;" parent="1" source="62" target="52" edge="1">
                    <mxGeometry x="0.0026" y="-21" width="160" relative="1" as="geometry">
                        <mxPoint x="1054" y="910.99" as="sourcePoint"/>
                        <mxPoint x="880.0000000000002" y="810.0020000000002" as="targetPoint"/>
                        <mxPoint as="offset"/>
                    </mxGeometry>
                </mxCell>
                <mxCell id="67" value="TetrisGameContorller" style="swimlane;fontStyle=1;align=center;verticalAlign=top;childLayout=stackLayout;horizontal=1;startSize=26;horizontalStack=0;resizeParent=1;resizeParentMax=0;resizeLast=0;collapsible=1;marginBottom=0;" parent="1" vertex="1">
                    <mxGeometry x="1393" y="890" width="160" height="112" as="geometry"/>
                </mxCell>
                <mxCell id="69" value="" style="line;strokeWidth=1;fillColor=none;align=left;verticalAlign=middle;spacingTop=-1;spacingLeft=3;spacingRight=3;rotatable=0;labelPosition=right;points=[];portConstraint=eastwest;strokeColor=inherit;" parent="67" vertex="1">
                    <mxGeometry y="26" width="160" height="8" as="geometry"/>
                </mxCell>
                <mxCell id="70" value="+ runModel(): type" style="text;strokeColor=none;fillColor=none;align=left;verticalAlign=top;spacingLeft=4;spacingRight=4;overflow=hidden;rotatable=0;points=[[0,0.5],[1,0.5]];portConstraint=eastwest;" parent="67" vertex="1">
                    <mxGeometry y="34" width="160" height="26" as="geometry"/>
                </mxCell>
                <mxCell id="247" value="+ registerAsObserver(): type" style="text;strokeColor=none;fillColor=none;align=left;verticalAlign=top;spacingLeft=4;spacingRight=4;overflow=hidden;rotatable=0;points=[[0,0.5],[1,0.5]];portConstraint=eastwest;" vertex="1" parent="67">
                    <mxGeometry y="60" width="160" height="26" as="geometry"/>
                </mxCell>
                <mxCell id="246" value="+ getThis(): type" style="text;strokeColor=none;fillColor=none;align=left;verticalAlign=top;spacingLeft=4;spacingRight=4;overflow=hidden;rotatable=0;points=[[0,0.5],[1,0.5]];portConstraint=eastwest;" vertex="1" parent="67">
                    <mxGeometry y="86" width="160" height="26" as="geometry"/>
                </mxCell>
                <mxCell id="71" value="" style="endArrow=block;endSize=16;endFill=0;html=1;exitX=0.5;exitY=0;exitDx=0;exitDy=0;entryX=0.505;entryY=0.962;entryDx=0;entryDy=0;entryPerimeter=0;" parent="1" source="67" target="59" edge="1">
                    <mxGeometry x="0.0026" y="-21" width="160" relative="1" as="geometry">
                        <mxPoint x="1490" y="842" as="sourcePoint"/>
                        <mxPoint x="1490" y="710" as="targetPoint"/>
                        <mxPoint as="offset"/>
                    </mxGeometry>
                </mxCell>
                <mxCell id="85" value="Ð¿Ð¾ÑÐ¾Ðº Ð¾Ð±Ð½Ð¾Ð²Ð»ÐµÐ½Ð¸Ñ Ð¼Ð¾Ð´ÐµÐ»Ð¸: mutex Ð½Ð° Ð¼Ð¾Ð´ÐµÐ»Ñ" style="shape=note;whiteSpace=wrap;html=1;backgroundOutline=1;darkOpacity=0.05;fillColor=#9999FF;" parent="1" vertex="1">
                    <mxGeometry x="1050" y="150" width="210" height="108" as="geometry"/>
                </mxCell>
                <mxCell id="99" value="TetrisGameModelImpl__&#xa;" style="swimlane;fontStyle=1;align=center;verticalAlign=top;childLayout=stackLayout;horizontal=1;startSize=26;horizontalStack=0;resizeParent=1;resizeParentMax=0;resizeLast=0;collapsible=1;marginBottom=0;" parent="1" vertex="1">
                    <mxGeometry x="560" y="820" width="280" height="268" as="geometry"/>
                </mxCell>
                <mxCell id="133" value="- score_: int" style="text;strokeColor=none;fillColor=none;align=left;verticalAlign=top;spacingLeft=4;spacingRight=4;overflow=hidden;rotatable=0;points=[[0,0.5],[1,0.5]];portConstraint=eastwest;" parent="99" vertex="1">
                    <mxGeometry y="26" width="280" height="26" as="geometry"/>
                </mxCell>
                <mxCell id="141" value="- field_: vector&lt;vector&lt;BlocType&gt;&gt;" style="text;strokeColor=none;fillColor=none;align=left;verticalAlign=top;spacingLeft=4;spacingRight=4;overflow=hidden;rotatable=0;points=[[0,0.5],[1,0.5]];portConstraint=eastwest;" parent="99" vertex="1">
                    <mxGeometry y="52" width="280" height="26" as="geometry"/>
                </mxCell>
                <mxCell id="149" value="- tetrominoUpdater_: TetrominoMovementImpl" style="text;strokeColor=none;fillColor=none;align=left;verticalAlign=top;spacingLeft=4;spacingRight=4;overflow=hidden;rotatable=0;points=[[0,0.5],[1,0.5]];portConstraint=eastwest;" parent="99" vertex="1">
                    <mxGeometry y="78" width="280" height="26" as="geometry"/>
                </mxCell>
                <mxCell id="101" value="" style="line;strokeWidth=1;fillColor=none;align=left;verticalAlign=middle;spacingTop=-1;spacingLeft=3;spacingRight=3;rotatable=0;labelPosition=right;points=[];portConstraint=eastwest;strokeColor=inherit;" parent="99" vertex="1">
                    <mxGeometry y="104" width="280" height="8" as="geometry"/>
                </mxCell>
                <mxCell id="121" value="+ moveRightCurTetromino(): bool&#xa;" style="text;strokeColor=none;fillColor=none;align=left;verticalAlign=top;spacingLeft=4;spacingRight=4;overflow=hidden;rotatable=0;points=[[0,0.5],[1,0.5]];portConstraint=eastwest;" parent="99" vertex="1">
                    <mxGeometry y="112" width="280" height="26" as="geometry"/>
                </mxCell>
                <mxCell id="120" value="+ moveLeftCurTetromino(): bool&#xa;" style="text;strokeColor=none;fillColor=none;align=left;verticalAlign=top;spacingLeft=4;spacingRight=4;overflow=hidden;rotatable=0;points=[[0,0.5],[1,0.5]];portConstraint=eastwest;" parent="99" vertex="1">
                    <mxGeometry y="138" width="280" height="26" as="geometry"/>
                </mxCell>
                <mxCell id="119" value="+ rotateRightCurTetromino(): bool&#xa;&#xa;" style="text;strokeColor=none;fillColor=none;align=left;verticalAlign=top;spacingLeft=4;spacingRight=4;overflow=hidden;rotatable=0;points=[[0,0.5],[1,0.5]];portConstraint=eastwest;" parent="99" vertex="1">
                    <mxGeometry y="164" width="280" height="26" as="geometry"/>
                </mxCell>
                <mxCell id="118" value="+ score(): int" style="text;strokeColor=none;fillColor=none;align=left;verticalAlign=top;spacingLeft=4;spacingRight=4;overflow=hidden;rotatable=0;points=[[0,0.5],[1,0.5]];portConstraint=eastwest;" parent="99" vertex="1">
                    <mxGeometry y="190" width="280" height="26" as="geometry"/>
                </mxCell>
                <mxCell id="117" value="+ field(): vector&lt;vector&lt;BlockType&gt;&gt;" style="text;strokeColor=none;fillColor=none;align=left;verticalAlign=top;spacingLeft=4;spacingRight=4;overflow=hidden;rotatable=0;points=[[0,0.5],[1,0.5]];portConstraint=eastwest;" parent="99" vertex="1">
                    <mxGeometry y="216" width="280" height="26" as="geometry"/>
                </mxCell>
                <mxCell id="116" value="+ updateModel(): void" style="text;strokeColor=none;fillColor=none;align=left;verticalAlign=top;spacingLeft=4;spacingRight=4;overflow=hidden;rotatable=0;points=[[0,0.5],[1,0.5]];portConstraint=eastwest;" parent="99" vertex="1">
                    <mxGeometry y="242" width="280" height="26" as="geometry"/>
                </mxCell>
                <mxCell id="103" value="" style="endArrow=diamondThin;endFill=1;endSize=24;html=1;exitX=1.014;exitY=0.808;exitDx=0;exitDy=0;entryX=0;entryY=0.5;entryDx=0;entryDy=0;exitPerimeter=0;" parent="1" source="121" target="63" edge="1">
                    <mxGeometry width="160" relative="1" as="geometry">
                        <mxPoint x="800" y="882.9999999999998" as="sourcePoint"/>
                        <mxPoint x="1150" y="960" as="targetPoint"/>
                    </mxGeometry>
                </mxCell>
                <mxCell id="142" value="TetrominoMovement" style="swimlane;fontStyle=1;align=center;verticalAlign=top;childLayout=stackLayout;horizontal=1;startSize=26;horizontalStack=0;resizeParent=1;resizeParentMax=0;resizeLast=0;collapsible=1;marginBottom=0;" parent="1" vertex="1">
                    <mxGeometry x="130" y="860" width="330" height="220" as="geometry"/>
                </mxCell>
                <mxCell id="136" value="~ curTetromino_: Tetromino" style="text;strokeColor=none;fillColor=none;align=left;verticalAlign=top;spacingLeft=4;spacingRight=4;overflow=hidden;rotatable=0;points=[[0,0.5],[1,0.5]];portConstraint=eastwest;" parent="142" vertex="1">
                    <mxGeometry y="26" width="330" height="26" as="geometry"/>
                </mxCell>
                <mxCell id="143" value="" style="line;strokeWidth=1;fillColor=none;align=left;verticalAlign=middle;spacingTop=-1;spacingLeft=3;spacingRight=3;rotatable=0;labelPosition=right;points=[];portConstraint=eastwest;strokeColor=inherit;" parent="142" vertex="1">
                    <mxGeometry y="52" width="330" height="8" as="geometry"/>
                </mxCell>
                <mxCell id="151" value="+ TetrominoUpdateImpl(field: vector&lt;vector&lt;BlockType&gt;&gt;)" style="text;strokeColor=none;fillColor=none;align=left;verticalAlign=top;spacingLeft=4;spacingRight=4;overflow=hidden;rotatable=0;points=[[0,0.5],[1,0.5]];portConstraint=eastwest;" parent="142" vertex="1">
                    <mxGeometry y="60" width="330" height="26" as="geometry"/>
                </mxCell>
                <mxCell id="144" value="+ moveDown(): bool" style="text;strokeColor=none;fillColor=none;align=left;verticalAlign=top;spacingLeft=4;spacingRight=4;overflow=hidden;rotatable=0;points=[[0,0.5],[1,0.5]];portConstraint=eastwest;" parent="142" vertex="1">
                    <mxGeometry y="86" width="330" height="26" as="geometry"/>
                </mxCell>
                <mxCell id="152" value="+ rotateRight(): bool" style="text;strokeColor=none;fillColor=none;align=left;verticalAlign=top;spacingLeft=4;spacingRight=4;overflow=hidden;rotatable=0;points=[[0,0.5],[1,0.5]];portConstraint=eastwest;" parent="142" vertex="1">
                    <mxGeometry y="112" width="330" height="27" as="geometry"/>
                </mxCell>
                <mxCell id="154" value="+ moveLeft(): bool" style="text;strokeColor=none;fillColor=none;align=left;verticalAlign=top;spacingLeft=4;spacingRight=4;overflow=hidden;rotatable=0;points=[[0,0.5],[1,0.5]];portConstraint=eastwest;" parent="142" vertex="1">
                    <mxGeometry y="139" width="330" height="27" as="geometry"/>
                </mxCell>
                <mxCell id="155" value="+ moveRight(): bool" style="text;strokeColor=none;fillColor=none;align=left;verticalAlign=top;spacingLeft=4;spacingRight=4;overflow=hidden;rotatable=0;points=[[0,0.5],[1,0.5]];portConstraint=eastwest;" parent="142" vertex="1">
                    <mxGeometry y="166" width="330" height="27" as="geometry"/>
                </mxCell>
                <mxCell id="156" value="+ setNextTetromino(Tetromino): bool" style="text;strokeColor=none;fillColor=none;align=left;verticalAlign=top;spacingLeft=4;spacingRight=4;overflow=hidden;rotatable=0;points=[[0,0.5],[1,0.5]];portConstraint=eastwest;" parent="142" vertex="1">
                    <mxGeometry y="193" width="330" height="27" as="geometry"/>
                </mxCell>
                <mxCell id="150" value="" style="endArrow=diamondThin;endFill=1;endSize=24;html=1;exitX=1.005;exitY=0.351;exitDx=0;exitDy=0;entryX=0.001;entryY=0.04;entryDx=0;entryDy=0;exitPerimeter=0;entryPerimeter=0;" parent="1" source="142" target="99" edge="1">
                    <mxGeometry width="160" relative="1" as="geometry">
                        <mxPoint x="366.6199999999998" y="870.008" as="sourcePoint"/>
                        <mxPoint x="490.0000000000001" y="799.9999999999998" as="targetPoint"/>
                    </mxGeometry>
                </mxCell>
                <mxCell id="157" value="TetrominoMovementWithGhostTetromino" style="swimlane;fontStyle=1;align=center;verticalAlign=top;childLayout=stackLayout;horizontal=1;startSize=26;horizontalStack=0;resizeParent=1;resizeParentMax=0;resizeLast=0;collapsible=1;marginBottom=0;" parent="1" vertex="1">
                    <mxGeometry x="90" y="1244" width="380" height="274" as="geometry"/>
                </mxCell>
                <mxCell id="159" value="" style="line;strokeWidth=1;fillColor=none;align=left;verticalAlign=middle;spacingTop=-1;spacingLeft=3;spacingRight=3;rotatable=0;labelPosition=right;points=[];portConstraint=eastwest;strokeColor=inherit;" parent="157" vertex="1">
                    <mxGeometry y="26" width="380" height="8" as="geometry"/>
                </mxCell>
                <mxCell id="172" value="&lt;div style=&quot;color: rgb(248, 248, 242); background-color: rgb(40, 42, 54); font-family: &amp;quot;JetBrains Mono&amp;quot;, &amp;quot;Courier New&amp;quot;, monospace, Consolas, &amp;quot;Courier New&amp;quot;, monospace; font-weight: normal; font-size: 13px; line-height: 18px;&quot;&gt;&lt;br&gt;&lt;div&gt;&lt;span style=&quot;color: #f8f8f2;&quot;&gt;&amp;nbsp; &amp;nbsp; &lt;/span&gt;&lt;span style=&quot;color: #ff79c6;&quot;&gt;void&lt;/span&gt;&lt;span style=&quot;color: #f8f8f2;&quot;&gt; &lt;/span&gt;&lt;span style=&quot;color: #50fa7b;&quot;&gt;setBlockAt&lt;/span&gt;&lt;span style=&quot;color: #f8f8f2;&quot;&gt;(&lt;/span&gt;&lt;span style=&quot;color: #8be9fd;font-style: italic;&quot;&gt;size_t&lt;/span&gt;&lt;span style=&quot;color: #f8f8f2;&quot;&gt; &lt;/span&gt;&lt;span style=&quot;color: #ffb86c;font-style: italic;&quot;&gt;i&lt;/span&gt;&lt;span style=&quot;color: #f8f8f2;&quot;&gt;, &lt;/span&gt;&lt;span style=&quot;color: #8be9fd;font-style: italic;&quot;&gt;size_t&lt;/span&gt;&lt;span style=&quot;color: #f8f8f2;&quot;&gt; &lt;/span&gt;&lt;span style=&quot;color: #ffb86c;font-style: italic;&quot;&gt;j&lt;/span&gt;&lt;span style=&quot;color: #f8f8f2;&quot;&gt;);&lt;/span&gt;&lt;/div&gt;&lt;div&gt;&lt;span style=&quot;color: #f8f8f2;&quot;&gt;&amp;nbsp; &amp;nbsp; &lt;/span&gt;&lt;span style=&quot;color: #ff79c6;&quot;&gt;void&lt;/span&gt;&lt;span style=&quot;color: #f8f8f2;&quot;&gt; &lt;/span&gt;&lt;span style=&quot;color: #50fa7b;&quot;&gt;deleteBlockAt&lt;/span&gt;&lt;span style=&quot;color: #f8f8f2;&quot;&gt;(&lt;/span&gt;&lt;span style=&quot;color: #8be9fd;font-style: italic;&quot;&gt;size_t&lt;/span&gt;&lt;span style=&quot;color: #f8f8f2;&quot;&gt; &lt;/span&gt;&lt;span style=&quot;color: #ffb86c;font-style: italic;&quot;&gt;i&lt;/span&gt;&lt;span style=&quot;color: #f8f8f2;&quot;&gt;, &lt;/span&gt;&lt;span style=&quot;color: #8be9fd;font-style: italic;&quot;&gt;size_t&lt;/span&gt;&lt;span style=&quot;color: #f8f8f2;&quot;&gt; &lt;/span&gt;&lt;span style=&quot;color: #ffb86c;font-style: italic;&quot;&gt;j&lt;/span&gt;&lt;span style=&quot;color: #f8f8f2;&quot;&gt;);&lt;/span&gt;&lt;/div&gt;&lt;br&gt;&lt;div&gt;&lt;span style=&quot;color: #f8f8f2;&quot;&gt;&amp;nbsp; &amp;nbsp; &lt;/span&gt;&lt;span style=&quot;color: #ff79c6;&quot;&gt;void&lt;/span&gt;&lt;span style=&quot;color: #f8f8f2;&quot;&gt; &lt;/span&gt;&lt;span style=&quot;color: #50fa7b;&quot;&gt;setGhostBlockAt&lt;/span&gt;&lt;span style=&quot;color: #f8f8f2;&quot;&gt;(&lt;/span&gt;&lt;span style=&quot;color: #8be9fd;font-style: italic;&quot;&gt;size_t&lt;/span&gt;&lt;span style=&quot;color: #f8f8f2;&quot;&gt; &lt;/span&gt;&lt;span style=&quot;color: #ffb86c;font-style: italic;&quot;&gt;i&lt;/span&gt;&lt;span style=&quot;color: #f8f8f2;&quot;&gt;, &lt;/span&gt;&lt;span style=&quot;color: #8be9fd;font-style: italic;&quot;&gt;size_t&lt;/span&gt;&lt;span style=&quot;color: #f8f8f2;&quot;&gt; &lt;/span&gt;&lt;span style=&quot;color: #ffb86c;font-style: italic;&quot;&gt;j&lt;/span&gt;&lt;span style=&quot;color: #f8f8f2;&quot;&gt;);&lt;/span&gt;&lt;/div&gt;&lt;div&gt;&lt;span style=&quot;color: #f8f8f2;&quot;&gt;&amp;nbsp; &amp;nbsp; &lt;/span&gt;&lt;span style=&quot;color: #ff79c6;&quot;&gt;void&lt;/span&gt;&lt;span style=&quot;color: #f8f8f2;&quot;&gt; &lt;/span&gt;&lt;span style=&quot;color: #50fa7b;&quot;&gt;deleteGhostBlockAt&lt;/span&gt;&lt;span style=&quot;color: #f8f8f2;&quot;&gt;(&lt;/span&gt;&lt;span style=&quot;color: #8be9fd;font-style: italic;&quot;&gt;size_t&lt;/span&gt;&lt;span style=&quot;color: #f8f8f2;&quot;&gt; &lt;/span&gt;&lt;span style=&quot;color: #ffb86c;font-style: italic;&quot;&gt;i&lt;/span&gt;&lt;span style=&quot;color: #f8f8f2;&quot;&gt;, &lt;/span&gt;&lt;span style=&quot;color: #8be9fd;font-style: italic;&quot;&gt;size_t&lt;/span&gt;&lt;span style=&quot;color: #f8f8f2;&quot;&gt; &lt;/span&gt;&lt;span style=&quot;color: #ffb86c;font-style: italic;&quot;&gt;j&lt;/span&gt;&lt;span style=&quot;color: #f8f8f2;&quot;&gt;);&lt;/span&gt;&lt;/div&gt;&lt;br&gt;&lt;div&gt;&lt;span style=&quot;color: #f8f8f2;&quot;&gt;&amp;nbsp; &amp;nbsp; &lt;/span&gt;&lt;span style=&quot;color: #ff79c6;&quot;&gt;void&lt;/span&gt;&lt;span style=&quot;color: #f8f8f2;&quot;&gt; &lt;/span&gt;&lt;span style=&quot;color: #50fa7b;&quot;&gt;setCurTetrominoOnField&lt;/span&gt;&lt;span style=&quot;color: #f8f8f2;&quot;&gt;(); &amp;nbsp; &amp;nbsp;&lt;/span&gt;&lt;/div&gt;&lt;div&gt;&lt;span style=&quot;color: #f8f8f2;&quot;&gt;&amp;nbsp; &amp;nbsp; &lt;/span&gt;&lt;span style=&quot;color: #ff79c6;&quot;&gt;void&lt;/span&gt;&lt;span style=&quot;color: #f8f8f2;&quot;&gt; &lt;/span&gt;&lt;span style=&quot;color: #50fa7b;&quot;&gt;deleteCurTetrominoOnField&lt;/span&gt;&lt;span style=&quot;color: #f8f8f2;&quot;&gt;();&lt;/span&gt;&lt;/div&gt;&lt;br&gt;&lt;div&gt;&lt;span style=&quot;color: #f8f8f2;&quot;&gt;&amp;nbsp; &amp;nbsp; &lt;/span&gt;&lt;span style=&quot;color: #ff79c6;&quot;&gt;void&lt;/span&gt;&lt;span style=&quot;color: #f8f8f2;&quot;&gt; &lt;/span&gt;&lt;span style=&quot;color: #50fa7b;&quot;&gt;setCurTetrominoGhostOnField&lt;/span&gt;&lt;span style=&quot;color: #f8f8f2;&quot;&gt;();&lt;/span&gt;&lt;/div&gt;&lt;div&gt;&lt;span style=&quot;color: #f8f8f2;&quot;&gt;&amp;nbsp; &amp;nbsp; &lt;/span&gt;&lt;span style=&quot;color: #ff79c6;&quot;&gt;void&lt;/span&gt;&lt;span style=&quot;color: #f8f8f2;&quot;&gt; &lt;/span&gt;&lt;span style=&quot;color: #50fa7b;&quot;&gt;deleteCurTetrominoGhostOnField&lt;/span&gt;&lt;span style=&quot;color: #f8f8f2;&quot;&gt;();&lt;/span&gt;&lt;/div&gt;&lt;/div&gt;" style="text;whiteSpace=wrap;html=1;" parent="157" vertex="1">
                    <mxGeometry y="34" width="380" height="240" as="geometry"/>
                </mxCell>
                <mxCell id="173" value="" style="endArrow=block;endSize=16;endFill=0;html=1;exitX=0.5;exitY=0;exitDx=0;exitDy=0;entryX=0.539;entryY=1.158;entryDx=0;entryDy=0;entryPerimeter=0;" parent="1" source="157" target="156" edge="1">
                    <mxGeometry x="0.0026" y="-21" width="160" relative="1" as="geometry">
                        <mxPoint x="31.42999999999995" y="1214.33" as="sourcePoint"/>
                        <mxPoint x="288.5799999999996" y="1149.9979999999998" as="targetPoint"/>
                        <mxPoint as="offset"/>
                    </mxGeometry>
                </mxCell>
                <mxCell id="174" value="" style="endArrow=none;dashed=1;html=1;dashPattern=1 3;strokeWidth=2;fillColor=#f8cecc;strokeColor=#b85450;" parent="1" edge="1">
                    <mxGeometry width="50" height="50" relative="1" as="geometry">
                        <mxPoint x="1317" y="1870" as="sourcePoint"/>
                        <mxPoint x="1317" y="90" as="targetPoint"/>
                    </mxGeometry>
                </mxCell>
                <mxCell id="175" value="Ð¿Ð¾ÑÐ¾Ðº ÑÑÐ¸ÑÐ°Ð²Ð°Ð½Ð¸Ðµ Ð²Ð²Ð¾Ð´Ð° Ð¸ Ð¼ÑÐ²Ð¼ÐµÐ½ÑÐ° ÑÐµÑÑÐ¾Ð¼Ð¸Ð½Ð¾ Ð² Ð¼Ð¾Ð´ÐµÐ»Ð¸: mutex Ð² Ð¾ÑÐµÑÐµÐ´Ð¸ ÑÐ²ÐµÐ½ÑÐ¾Ð² + Ð¶Ð´Ð°ÑÑ Ð¿Ð¾ÐºÐ° Ð¼Ð¾Ð´ÐµÐ»Ñ ÑÐ¼ÑÐµÑ Ð² Ð´ÑÑÐ³Ð¾Ð¼ Ð¿Ð¾ÑÐ¾ÐºÐµ" style="shape=note;whiteSpace=wrap;html=1;backgroundOutline=1;darkOpacity=0.05;fillColor=#9999FF;" parent="1" vertex="1">
                    <mxGeometry x="1367.5" y="150" width="210" height="108" as="geometry"/>
                </mxCell>
                <mxCell id="177" value="" style="endArrow=diamondThin;endFill=1;endSize=24;html=1;entryX=1;entryY=0.5;entryDx=0;entryDy=0;exitX=0;exitY=0.25;exitDx=0;exitDy=0;" parent="1" source="42" edge="1">
                    <mxGeometry width="160" relative="1" as="geometry">
                        <mxPoint x="620" y="1310" as="sourcePoint"/>
                        <mxPoint x="470" y="1309" as="targetPoint"/>
                    </mxGeometry>
                </mxCell>
                <mxCell id="180" value="&amp;lt;&amp;lt;create&amp;gt;&amp;gt;" style="endArrow=open;endSize=12;dashed=1;html=1;fillColor=#FF0000;exitX=0.443;exitY=1.006;exitDx=0;exitDy=0;exitPerimeter=0;" parent="1" source="116" target="42" edge="1">
                    <mxGeometry width="160" relative="1" as="geometry">
                        <mxPoint x="688.7999999999997" y="1270.7019999999998" as="sourcePoint"/>
                        <mxPoint x="850" y="1330" as="targetPoint"/>
                    </mxGeometry>
                </mxCell>
                <mxCell id="181" value="PlayerInput" style="swimlane;fontStyle=1;align=center;verticalAlign=top;childLayout=stackLayout;horizontal=1;startSize=26;horizontalStack=0;resizeParent=1;resizeParentMax=0;resizeLast=0;collapsible=1;marginBottom=0;" parent="1" vertex="1">
                    <mxGeometry x="1768" y="760" width="220" height="60" as="geometry"/>
                </mxCell>
                <mxCell id="183" value="" style="line;strokeWidth=1;fillColor=none;align=left;verticalAlign=middle;spacingTop=-1;spacingLeft=3;spacingRight=3;rotatable=0;labelPosition=right;points=[];portConstraint=eastwest;strokeColor=inherit;" parent="181" vertex="1">
                    <mxGeometry y="26" width="220" height="8" as="geometry"/>
                </mxCell>
                <mxCell id="189" value="+ updateInput(): void" style="text;strokeColor=none;fillColor=none;align=left;verticalAlign=top;spacingLeft=4;spacingRight=4;overflow=hidden;rotatable=0;points=[[0,0.5],[1,0.5]];portConstraint=eastwest;" parent="181" vertex="1">
                    <mxGeometry y="34" width="220" height="26" as="geometry"/>
                </mxCell>
                <mxCell id="185" value="EventType" style="swimlane;fontStyle=0;childLayout=stackLayout;horizontal=1;startSize=26;fillColor=none;horizontalStack=0;resizeParent=1;resizeParentMax=0;resizeLast=0;collapsible=1;marginBottom=0;" parent="1" vertex="1">
                    <mxGeometry x="816.25" y="228" width="202.5" height="200" as="geometry"/>
                </mxCell>
                <mxCell id="188" value="GAME_FIELD_UPDATE = 0,&#xa;GAME_SCORE_UPDATE,&#xa;GAME_FINISH,&#xa;USER_ASKED_LEFT,&#xa;USER_ASKED_RIGHT,&#xa;USER_ASKED_DOWN,&#xa;USER_ASKED_ROTATE_RIGHT,&#xa;USER_ASKED_CLOSE_GAME,&#xa;USER_ASKED_PAUSE_GAME&#xa;" style="text;strokeColor=none;fillColor=none;align=left;verticalAlign=top;spacingLeft=4;spacingRight=4;overflow=hidden;rotatable=0;points=[[0,0.5],[1,0.5]];portConstraint=eastwest;" parent="185" vertex="1">
                    <mxGeometry y="26" width="202.5" height="174" as="geometry"/>
                </mxCell>
                <mxCell id="190" value="" style="endArrow=block;endSize=16;endFill=0;html=1;exitX=0.25;exitY=0;exitDx=0;exitDy=0;entryX=1;entryY=0;entryDx=0;entryDy=0;" parent="1" source="181" target="48" edge="1">
                    <mxGeometry x="0.0026" y="-21" width="160" relative="1" as="geometry">
                        <mxPoint x="1810" y="690.99" as="sourcePoint"/>
                        <mxPoint x="1810.9250000000002" y="510.00199999999995" as="targetPoint"/>
                        <mxPoint as="offset"/>
                        <Array as="points">
                            <mxPoint x="1600" y="580"/>
                        </Array>
                    </mxGeometry>
                </mxCell>
                <mxCell id="193" value="KeyboardInput" style="swimlane;fontStyle=1;align=center;verticalAlign=top;childLayout=stackLayout;horizontal=1;startSize=26;horizontalStack=0;resizeParent=1;resizeParentMax=0;resizeLast=0;collapsible=1;marginBottom=0;" parent="1" vertex="1">
                    <mxGeometry x="1776" y="903" width="220" height="34" as="geometry"/>
                </mxCell>
                <mxCell id="194" value="" style="line;strokeWidth=1;fillColor=none;align=left;verticalAlign=middle;spacingTop=-1;spacingLeft=3;spacingRight=3;rotatable=0;labelPosition=right;points=[];portConstraint=eastwest;strokeColor=inherit;" parent="193" vertex="1">
                    <mxGeometry y="26" width="220" height="8" as="geometry"/>
                </mxCell>
                <mxCell id="197" value="" style="endArrow=block;endSize=16;endFill=0;html=1;exitX=0.5;exitY=0;exitDx=0;exitDy=0;entryX=0.535;entryY=1.014;entryDx=0;entryDy=0;entryPerimeter=0;" parent="1" source="193" target="189" edge="1">
                    <mxGeometry x="0.0026" y="-21" width="160" relative="1" as="geometry">
                        <mxPoint x="1879.47" y="1110.99" as="sourcePoint"/>
                        <mxPoint x="1880.3950000000002" y="930.002" as="targetPoint"/>
                        <mxPoint as="offset"/>
                    </mxGeometry>
                </mxCell>
                <mxCell id="199" value="" style="endArrow=diamondThin;endFill=0;endSize=24;html=1;fillColor=#FF0000;entryX=1;entryY=0.5;entryDx=0;entryDy=0;exitX=0.549;exitY=-0.011;exitDx=0;exitDy=0;exitPerimeter=0;" parent="1" source="6" target="70" edge="1">
                    <mxGeometry width="160" relative="1" as="geometry">
                        <mxPoint x="1230" y="1170" as="sourcePoint"/>
                        <mxPoint x="1390" y="1170" as="targetPoint"/>
                    </mxGeometry>
                </mxCell>
                <mxCell id="209" value="ScoreStrategy" style="swimlane;fontStyle=1;align=center;verticalAlign=top;childLayout=stackLayout;horizontal=1;startSize=26;horizontalStack=0;resizeParent=1;resizeParentMax=0;resizeLast=0;collapsible=1;marginBottom=0;" parent="1" vertex="1">
                    <mxGeometry x="820" y="1210" width="160" height="60" as="geometry"/>
                </mxCell>
                <mxCell id="211" value="" style="line;strokeWidth=1;fillColor=none;align=left;verticalAlign=middle;spacingTop=-1;spacingLeft=3;spacingRight=3;rotatable=0;labelPosition=right;points=[];portConstraint=eastwest;strokeColor=inherit;" parent="209" vertex="1">
                    <mxGeometry y="26" width="160" height="8" as="geometry"/>
                </mxCell>
                <mxCell id="248" value="+ computeScorre(): int" style="text;strokeColor=none;fillColor=none;align=left;verticalAlign=top;spacingLeft=4;spacingRight=4;overflow=hidden;rotatable=0;points=[[0,0.5],[1,0.5]];portConstraint=eastwest;" vertex="1" parent="209">
                    <mxGeometry y="34" width="160" height="26" as="geometry"/>
                </mxCell>
                <mxCell id="212" value="DoubleScorePerLine" style="swimlane;fontStyle=1;align=center;verticalAlign=top;childLayout=stackLayout;horizontal=1;startSize=26;horizontalStack=0;resizeParent=1;resizeParentMax=0;resizeLast=0;collapsible=1;marginBottom=0;" parent="1" vertex="1">
                    <mxGeometry x="816.25" y="1350" width="160" height="34" as="geometry"/>
                </mxCell>
                <mxCell id="213" value="" style="line;strokeWidth=1;fillColor=none;align=left;verticalAlign=middle;spacingTop=-1;spacingLeft=3;spacingRight=3;rotatable=0;labelPosition=right;points=[];portConstraint=eastwest;strokeColor=inherit;" parent="212" vertex="1">
                    <mxGeometry y="26" width="160" height="8" as="geometry"/>
                </mxCell>
                <mxCell id="215" value="" style="endArrow=block;endSize=16;endFill=0;html=1;exitX=0.5;exitY=0;exitDx=0;exitDy=0;entryX=0.5;entryY=1;entryDx=0;entryDy=0;" parent="1" source="212" target="209" edge="1">
                    <mxGeometry x="0.0026" y="-21" width="160" relative="1" as="geometry">
                        <mxPoint x="926.07" y="1619.87" as="sourcePoint"/>
                        <mxPoint x="928.9399999999999" y="1460.136" as="targetPoint"/>
                        <mxPoint as="offset"/>
                    </mxGeometry>
                </mxCell>
                <mxCell id="216" value="" style="endArrow=diamondThin;endFill=1;endSize=24;html=1;entryX=0.865;entryY=1.038;entryDx=0;entryDy=0;exitX=0.5;exitY=0;exitDx=0;exitDy=0;entryPerimeter=0;" parent="1" source="209" target="116" edge="1">
                    <mxGeometry width="160" relative="1" as="geometry">
                        <mxPoint x="570" y="1384.5" as="sourcePoint"/>
                        <mxPoint x="840" y="1231" as="targetPoint"/>
                    </mxGeometry>
                </mxCell>
                <mxCell id="225" value="ÑÑÑÐ°Ð½Ð½ÑÐµ Ð¸Ð¼ÐµÐ½Ð° Ð´Ð»Ñ Ð¼ÐµÑÐ¾Ð´Ð¾Ð² (Ð²ÑÐµ ÐºÐ»Ð°ÑÑÑ)" style="shape=note;whiteSpace=wrap;html=1;backgroundOutline=1;darkOpacity=0.05;fillColor=#CC0000;" parent="1" vertex="1">
                    <mxGeometry x="200" y="310" width="210" height="108" as="geometry"/>
                </mxCell>
                <mxCell id="227" value="Ð½ÐµÑ ÐµÐ´Ð¸Ð½Ð¾Ð¾Ð±ÑÐ°Ð·Ð½Ð¾Ð³Ð¾ Ð¸Ð½ÑÐµÑÑÐµÐ¹ÑÐ° Ð´Ð»Ñ Ð¿ÑÐ»Ð Ð¸Ð»Ð¸ Ð¿ÑÑÐ Ð¼ÐµÐ¶Ð´Ñ Observer Ð¸ Subject; ÐÐ°Ð±Ð»ÑÐ´Ð°ÑÐµÐ»Ñ Ð²ÑÐ±Ð¸ÑÐ°ÐµÑ Ñ ÐºÐ¾Ð³Ð¾ Ð±ÑÐ°ÑÑ Ð¸Ð½ÑÑ Ð¿Ð¾ ÑÐ¸Ð¿Ñ ÐµÐ²ÐµÐ½ÑÐ°, ÑÐµÑÐµÐ· Ð²ÐµÑÐ²Ð»ÐµÐ½Ð¸Ðµ." style="shape=note;whiteSpace=wrap;html=1;backgroundOutline=1;darkOpacity=0.05;fillColor=#CC0000;" parent="1" vertex="1">
                    <mxGeometry x="210" y="460" width="210" height="108" as="geometry"/>
                </mxCell>
                <mxCell id="230" value="LockBasedQueue&lt;T&gt;&#xa;" style="swimlane;fontStyle=1;align=center;verticalAlign=top;childLayout=stackLayout;horizontal=1;startSize=26;horizontalStack=0;resizeParent=1;resizeParentMax=0;resizeLast=0;collapsible=1;marginBottom=0;" vertex="1" parent="1">
                    <mxGeometry x="1210" y="1124" width="220" height="86" as="geometry"/>
                </mxCell>
                <mxCell id="231" value="" style="line;strokeWidth=1;fillColor=none;align=left;verticalAlign=middle;spacingTop=-1;spacingLeft=3;spacingRight=3;rotatable=0;labelPosition=right;points=[];portConstraint=eastwest;strokeColor=inherit;" vertex="1" parent="230">
                    <mxGeometry y="26" width="220" height="8" as="geometry"/>
                </mxCell>
                <mxCell id="232" value="+ tryPop(T&amp;): bool" style="text;strokeColor=none;fillColor=none;align=left;verticalAlign=top;spacingLeft=4;spacingRight=4;overflow=hidden;rotatable=0;points=[[0,0.5],[1,0.5]];portConstraint=eastwest;" vertex="1" parent="230">
                    <mxGeometry y="34" width="220" height="26" as="geometry"/>
                </mxCell>
                <mxCell id="233" value="+ push(const T&amp;): void" style="text;strokeColor=none;fillColor=none;align=left;verticalAlign=top;spacingLeft=4;spacingRight=4;overflow=hidden;rotatable=0;points=[[0,0.5],[1,0.5]];portConstraint=eastwest;" vertex="1" parent="230">
                    <mxGeometry y="60" width="220" height="26" as="geometry"/>
                </mxCell>
                <mxCell id="234" value="" style="endArrow=diamondThin;endFill=1;endSize=24;html=1;fillColor=#FF0000;exitX=0.5;exitY=0;exitDx=0;exitDy=0;entryX=0;entryY=0.5;entryDx=0;entryDy=0;" edge="1" parent="1" source="230" target="70">
                    <mxGeometry width="160" relative="1" as="geometry">
                        <mxPoint x="1778" y="817" as="sourcePoint"/>
                        <mxPoint x="1563" y="939" as="targetPoint"/>
                    </mxGeometry>
                </mxCell>
                <mxCell id="237" value="SubjectImpl" style="swimlane;fontStyle=1;align=center;verticalAlign=top;childLayout=stackLayout;horizontal=1;startSize=26;horizontalStack=0;resizeParent=1;resizeParentMax=0;resizeLast=0;collapsible=1;marginBottom=0;" vertex="1" parent="1">
                    <mxGeometry x="552.5" y="512" width="285" height="138" as="geometry"/>
                </mxCell>
                <mxCell id="49" value="- obs_:vector&lt;pair&lt;Observer, EventType&gt;&gt;" style="text;strokeColor=none;fillColor=none;align=left;verticalAlign=top;spacingLeft=4;spacingRight=4;overflow=hidden;rotatable=0;points=[[0,0.5],[1,0.5]];portConstraint=eastwest;" parent="237" vertex="1">
                    <mxGeometry y="26" width="285" height="26" as="geometry"/>
                </mxCell>
                <mxCell id="238" value="" style="line;strokeWidth=1;fillColor=none;align=left;verticalAlign=middle;spacingTop=-1;spacingLeft=3;spacingRight=3;rotatable=0;labelPosition=right;points=[];portConstraint=eastwest;strokeColor=inherit;" vertex="1" parent="237">
                    <mxGeometry y="52" width="285" height="8" as="geometry"/>
                </mxCell>
                <mxCell id="239" value="+ attach(Observer, EventType): void" style="text;strokeColor=none;fillColor=none;align=left;verticalAlign=top;spacingLeft=4;spacingRight=4;overflow=hidden;rotatable=0;points=[[0,0.5],[1,0.5]];portConstraint=eastwest;" vertex="1" parent="237">
                    <mxGeometry y="60" width="285" height="26" as="geometry"/>
                </mxCell>
                <mxCell id="240" value="+ detach(Observer): void" style="text;strokeColor=none;fillColor=none;align=left;verticalAlign=top;spacingLeft=4;spacingRight=4;overflow=hidden;rotatable=0;points=[[0,0.5],[1,0.5]];portConstraint=eastwest;" vertex="1" parent="237">
                    <mxGeometry y="86" width="285" height="26" as="geometry"/>
                </mxCell>
                <mxCell id="241" value="~ notify(EventType): void" style="text;strokeColor=none;fillColor=none;align=left;verticalAlign=top;spacingLeft=4;spacingRight=4;overflow=hidden;rotatable=0;points=[[0,0.5],[1,0.5]];portConstraint=eastwest;" vertex="1" parent="237">
                    <mxGeometry y="112" width="285" height="26" as="geometry"/>
                </mxCell>
                <mxCell id="242" value="" style="endArrow=block;endSize=16;endFill=0;html=1;exitX=1;exitY=0.5;exitDx=0;exitDy=0;entryX=0;entryY=0.5;entryDx=0;entryDy=0;" edge="1" parent="1" source="239" target="51">
                    <mxGeometry x="0.0026" y="-21" width="160" relative="1" as="geometry">
                        <mxPoint x="1113" y="870" as="sourcePoint"/>
                        <mxPoint x="1113" y="747" as="targetPoint"/>
                        <mxPoint as="offset"/>
                    </mxGeometry>
                </mxCell>
                <mxCell id="243" value="" style="endArrow=block;endSize=16;endFill=0;html=1;exitX=0.5;exitY=0;exitDx=0;exitDy=0;entryX=0.536;entryY=1.07;entryDx=0;entryDy=0;entryPerimeter=0;" edge="1" parent="1" source="99" target="241">
                    <mxGeometry x="0.0026" y="-21" width="160" relative="1" as="geometry">
                        <mxPoint x="848" y="593" as="sourcePoint"/>
                        <mxPoint x="980" y="551" as="targetPoint"/>
                        <mxPoint as="offset"/>
                    </mxGeometry>
                </mxCell>
                <mxCell id="244" value="Use" style="endArrow=open;endSize=12;dashed=1;html=1;exitX=0.701;exitY=0.001;exitDx=0;exitDy=0;exitPerimeter=0;" edge="1" parent="1" source="237" target="188">
                    <mxGeometry width="160" relative="1" as="geometry">
                        <mxPoint x="860" y="1000" as="sourcePoint"/>
                        <mxPoint x="1020" y="1000" as="targetPoint"/>
                    </mxGeometry>
                </mxCell>
                <mxCell id="245" value="Use" style="endArrow=open;endSize=12;dashed=1;html=1;exitX=0.5;exitY=0;exitDx=0;exitDy=0;entryX=0.415;entryY=1.018;entryDx=0;entryDy=0;entryPerimeter=0;" edge="1" parent="1" source="48" target="188">
                    <mxGeometry width="160" relative="1" as="geometry">
                        <mxPoint x="762" y="522" as="sourcePoint"/>
                        <mxPoint x="848" y="430" as="targetPoint"/>
                    </mxGeometry>
                </mxCell>
                <mxCell id="251" value="" style="endArrow=diamondThin;endFill=0;endSize=24;html=1;fillColor=#FF0000;entryX=0;entryY=0.25;entryDx=0;entryDy=0;exitX=0.991;exitY=0.231;exitDx=0;exitDy=0;exitPerimeter=0;" edge="1" parent="1" source="83" target="67">
                    <mxGeometry width="160" relative="1" as="geometry">
                        <mxPoint x="1771" y="1149" as="sourcePoint"/>
                        <mxPoint x="1563" y="947" as="targetPoint"/>
                    </mxGeometry>
                </mxCell>
                <mxCell id="253" value="" style="endArrow=diamondThin;endFill=0;endSize=24;html=1;fillColor=#FF0000;entryX=1;entryY=0.5;entryDx=0;entryDy=0;exitX=0;exitY=0.5;exitDx=0;exitDy=0;" edge="1" parent="1" source="181" target="70">
                    <mxGeometry width="160" relative="1" as="geometry">
                        <mxPoint x="1771" y="1149" as="sourcePoint"/>
                        <mxPoint x="1563" y="947" as="targetPoint"/>
                    </mxGeometry>
                </mxCell>
                <mxCell id="254" value="DrawableStackLayout&#xa;" style="swimlane;fontStyle=1;align=center;verticalAlign=top;childLayout=stackLayout;horizontal=1;startSize=20;horizontalStack=0;resizeParent=1;resizeParentMax=0;resizeLast=0;collapsible=1;marginBottom=0;" vertex="1" parent="1">
                    <mxGeometry x="1330" y="1490" width="240" height="28" as="geometry"/>
                </mxCell>
                <mxCell id="255" value="" style="line;strokeWidth=1;fillColor=none;align=left;verticalAlign=middle;spacingTop=-1;spacingLeft=3;spacingRight=3;rotatable=0;labelPosition=right;points=[];portConstraint=eastwest;strokeColor=inherit;" vertex="1" parent="254">
                    <mxGeometry y="20" width="240" height="8" as="geometry"/>
                </mxCell>
                <mxCell id="256" value="DrawableNestedLayout&#xa;&#xa;" style="swimlane;fontStyle=1;align=center;verticalAlign=top;childLayout=stackLayout;horizontal=1;startSize=20;horizontalStack=0;resizeParent=1;resizeParentMax=0;resizeLast=0;collapsible=1;marginBottom=0;" vertex="1" parent="1">
                    <mxGeometry x="1630" y="1490" width="240" height="28" as="geometry"/>
                </mxCell>
                <mxCell id="257" value="" style="line;strokeWidth=1;fillColor=none;align=left;verticalAlign=middle;spacingTop=-1;spacingLeft=3;spacingRight=3;rotatable=0;labelPosition=right;points=[];portConstraint=eastwest;strokeColor=inherit;" vertex="1" parent="256">
                    <mxGeometry y="20" width="240" height="8" as="geometry"/>
                </mxCell>
                <mxCell id="258" value="" style="endArrow=block;endSize=16;endFill=0;html=1;entryX=0.554;entryY=1;entryDx=0;entryDy=0;entryPerimeter=0;exitX=0.5;exitY=0;exitDx=0;exitDy=0;" edge="1" parent="1" source="256" target="13">
                    <mxGeometry x="0.0026" y="-21" width="160" relative="1" as="geometry">
                        <mxPoint x="1498" y="1510" as="sourcePoint"/>
                        <mxPoint x="1523" y="1311" as="targetPoint"/>
                        <mxPoint as="offset"/>
                    </mxGeometry>
                </mxCell>
                <mxCell id="259" value="" style="endArrow=diamondThin;endFill=0;endSize=24;html=1;fillColor=#FF0000;entryX=0.75;entryY=0;entryDx=0;entryDy=0;exitX=0;exitY=0.5;exitDx=0;exitDy=0;" edge="1" parent="1" target="10">
                    <mxGeometry width="160" relative="1" as="geometry">
                        <mxPoint x="1680" y="1172.9999999999995" as="sourcePoint"/>
                        <mxPoint x="1458" y="1386" as="targetPoint"/>
                    </mxGeometry>
                </mxCell>
                <mxCell id="261" value="DrawableText&#xa;" style="swimlane;fontStyle=1;align=center;verticalAlign=top;childLayout=stackLayout;horizontal=1;startSize=20;horizontalStack=0;resizeParent=1;resizeParentMax=0;resizeLast=0;collapsible=1;marginBottom=0;" vertex="1" parent="1">
                    <mxGeometry x="1460" y="1590" width="240" height="80" as="geometry"/>
                </mxCell>
                <mxCell id="262" value="" style="line;strokeWidth=1;fillColor=none;align=left;verticalAlign=middle;spacingTop=-1;spacingLeft=3;spacingRight=3;rotatable=0;labelPosition=right;points=[];portConstraint=eastwest;strokeColor=inherit;" vertex="1" parent="261">
                    <mxGeometry y="20" width="240" height="8" as="geometry"/>
                </mxCell>
                <mxCell id="267" value="+ DrawableText(txt, textSquareSize)" style="text;strokeColor=none;fillColor=none;align=left;verticalAlign=top;spacingLeft=4;spacingRight=4;overflow=hidden;rotatable=0;points=[[0,0.5],[1,0.5]];portConstraint=eastwest;" vertex="1" parent="261">
                    <mxGeometry y="28" width="240" height="26" as="geometry"/>
                </mxCell>
                <mxCell id="270" value="+ setText(txt): void" style="text;strokeColor=none;fillColor=none;align=left;verticalAlign=top;spacingLeft=4;spacingRight=4;overflow=hidden;rotatable=0;points=[[0,0.5],[1,0.5]];portConstraint=eastwest;" vertex="1" parent="261">
                    <mxGeometry y="54" width="240" height="26" as="geometry"/>
                </mxCell>
                <mxCell id="269" value="" style="endArrow=block;endSize=16;endFill=0;html=1;entryX=0.499;entryY=1.015;entryDx=0;entryDy=0;entryPerimeter=0;exitX=0.75;exitY=0;exitDx=0;exitDy=0;" edge="1" parent="1" source="261" target="13">
                    <mxGeometry x="0.0026" y="-21" width="160" relative="1" as="geometry">
                        <mxPoint x="1760" y="1500" as="sourcePoint"/>
                        <mxPoint x="1518" y="1330" as="targetPoint"/>
                        <mxPoint as="offset"/>
                    </mxGeometry>
                </mxCell>
            </root>
        </mxGraphModel>
    </diagram>
</mxfile>